<?xml version="1.0" encoding="UTF-8"?>
<svg width="150px" height="150px" viewBox="0 0 150 150" version="1.1" xmlns="http://www.w3.org/2000/svg" xmlns:xlink="http://www.w3.org/1999/xlink">
    <!-- Generator: Sketch 43.1 (39012) - http://www.bohemiancoding.com/sketch -->
    <title>Rectangle</title>
    <desc>Created with Sketch.</desc>
    <defs></defs>
    <g id="Page-1" stroke="none" stroke-width="1" fill="none" fill-rule="evenodd">
        <rect id="Rectangle" fill="#FFFFFF" x="0" y="0" width="150" height="150"></rect>
        <text id="图片未上传" font-family="PingFangSC-Regular, PingFang SC" font-size="12" font-weight="normal" fill="#DDDDDD">
            <tspan x="45" y="126">图片未上传</tspan>
        </text>
        <g id="无图" transform="translate(39.000000, 26.000000)" fill="#EBEBEB">
            <path d="M69.9041182,58.5286982 C67.6410754,58.5286982 68.1188071,55.1559827 68.1188071,55.1559827 L68.1188071,42.2579024 C66.1798961,41.003789 63.8883027,40.2544441 61.4066736,40.2544441 C59.0689407,40.2544441 57.7471447,40.2371005 55.8810245,41.3590075 C55.8810245,41.3590075 54.7307128,42.06592 53.7237058,40.7356343 C52.7166987,39.4053487 54.3023891,37.8056008 54.3023891,37.8056008 C56.902527,36.0098953 58.0048887,36.4131811 61.4086751,36.4131811 C63.8212003,36.4131811 66.0704466,37.0025701 68.1204926,37.9554472 L68.1204926,11.4427559 C68.1204926,9.32217953 66.4024822,7.6013874 64.2854392,7.6013874 L20.64077,7.6013874 C20.64077,7.6013874 18.9274154,7.77950363 18.9274154,5.66304766 C18.9274154,3.54659169 20.64077,3.75970236 20.64077,3.75970236 L66.2008591,3.75970236 C69.3783724,3.75970236 71.9538605,6.34104882 71.9538605,9.52212441 L71.9538605,56.3542747 C71.9538605,56.8002731 72.167161,58.5286982 69.9041182,58.5286982 Z M52.7773294,17.2050724 C54.8943724,17.2050724 56.6123828,18.9261811 56.6123828,21.0467575 C56.6123828,23.1673339 54.8943724,24.8884425 52.7773294,24.8884425 C50.660181,24.8884425 48.9417493,23.1673339 48.9417493,21.0467575 C48.9417493,18.9261811 50.660181,17.2050724 52.7773294,17.2050724 Z M69.5129985,66.4366724 C68.7631795,67.1876 67.5510178,67.1876 66.8011988,66.4366724 L3.47183234,3.30431339 C2.72211869,2.55338583 2.72211869,1.33957795 3.47183234,0.588650394 C4.22154599,-0.162699213 5.43381306,-0.162699213 6.18352671,0.588650394 L69.5108917,63.7188992 C70.2606053,64.4698268 70.2606053,65.6856394 69.5129985,66.4366724 Z M23.0534006,32.5714961 C23.2315326,32.5714961 25.4088436,32.5678031 25.5852901,32.5714961 C25.5852901,32.5714961 27.2185157,32.5681362 27.5666648,34.2360814 C27.7588928,35.1570252 27.0669018,36.0894275 25.9471123,36.4131811 C24.8273228,36.7369347 23.7770306,36.4131811 23.0512938,36.4131811 C16.0633769,36.4131811 9.71203709,39.0270252 4.83347329,43.2952945 L4.83347329,55.6208677 C4.83347329,57.7434488 6.5517997,59.4625528 8.66852671,59.4625528 L50.3803947,59.4625528 C50.3803947,59.4607367 53.6435292,59.2380437 53.6435292,61.4673325 C53.6435292,63.6966213 50.6046391,63.3038157 50.6046391,63.3038157 L6.75300148,63.3038157 C3.57548813,63.3038157 1,60.7241575 1,57.5414992 L1,13.8303827 C1,13.8303827 0.234880915,10.0653978 3.03128142,10.0653978 C5.82768192,10.0653978 4.83547478,13.8303827 4.83547478,13.8303827 L4.83547478,38.4047165 C9.98982196,34.7513701 16.2567834,32.5714961 23.0534006,32.5714961 Z" id="Fill-1"></path>
        </g>
    </g>
</svg>